<?xml version="1.0" encoding="UTF-8" standalone="no"?>
<svg
   width="40mm"
   zoomAndPan="magnify"
   viewBox="0 0 113.38579 68.03149"
   height="24mm"
   preserveAspectRatio="xMidYMid meet"
   version="1.0"
   id="svg54"
   sodipodi:docname="KB LOGO.svg"
   inkscape:version="1.1 (c68e22c387, 2021-05-23)"
   xmlns:inkscape="http://www.inkscape.org/namespaces/inkscape"
   xmlns:sodipodi="http://sodipodi.sourceforge.net/DTD/sodipodi-0.dtd"
   xmlns="http://www.w3.org/2000/svg"
   xmlns:svg="http://www.w3.org/2000/svg">
  <sodipodi:namedview
     id="namedview56"
     pagecolor="#ffffff"
     bordercolor="#666666"
     borderopacity="1.0"
     inkscape:pageshadow="2"
     inkscape:pageopacity="0.0"
     inkscape:pagecheckerboard="0"
     showgrid="false"
     units="mm"
     width="68mm"
     inkscape:zoom="1.4962379"
     inkscape:cx="313.78699"
     inkscape:cy="57.81166"
     inkscape:window-width="1920"
     inkscape:window-height="1009"
     inkscape:window-x="1912"
     inkscape:window-y="-8"
     inkscape:window-maximized="1"
     inkscape:current-layer="svg54"
     inkscape:document-units="mm" />
  <defs
     id="defs4">
    <g
       id="g2" />
  </defs>
  <g
     fill="#8c52ff"
     fill-opacity="1"
     id="g12"
     transform="translate(-19.54903,-9.5238865)">
    <g
       transform="translate(26.242632,71.183307)"
       id="g10">
      <g
         id="g8">
        <path
           d="M 39.171875,-39.171875 H 31.34375 v 7.828125 h 7.828125 V -23.5 h 7.84375 V 0 H 31.34375 V -23.5 H 23.5 v -7.84375 H 15.671875 V 0 H 0 v -54.84375 h 15.671875 v 15.671875 H 23.5 v -7.84375 h 7.84375 v -7.828125 h 15.671875 v 7.828125 h -7.84375 z m 0,0"
           id="path6" />
      </g>
    </g>
  </g>
  <g
     fill="#8c52ff"
     fill-opacity="1"
     id="g36"
     transform="translate(-131.06259,-9.5238865)">
    <g
       transform="translate(190.77182,71.183307)"
       id="g34">
      <g
         id="g32">
        <path
           d="m 47.015625,-39.171875 h -7.84375 v 7.828125 h 7.84375 v 23.515625 h -7.84375 V 0 H 0 v -54.84375 h 39.171875 v 7.828125 h 7.84375 z m -15.671875,0 v -7.84375 H 15.671875 v 7.84375 z m 0,7.828125 H 15.671875 V -7.828125 H 31.34375 Z m 0,0"
           id="path30" />
      </g>
    </g>
  </g>
</svg>
